<?xml version="1.0" standalone="no"?>
<!DOCTYPE svg PUBLIC "-//W3C//DTD SVG 20010904//EN"
 "http://www.w3.org/TR/2001/REC-SVG-20010904/DTD/svg10.dtd">
<svg version="1.0" xmlns="http://www.w3.org/2000/svg"
 width="260.000000pt" height="260.000000pt" viewBox="0 0 260.000000 260.000000"
 preserveAspectRatio="xMidYMid meet">
<metadata>
Created by potrace 1.11, written by Peter Selinger 2001-2013
</metadata>
<g transform="translate(0.000000,260.000000) scale(0.100000,-0.100000)"
fill="#000000" stroke="none">
<path d="M1130 2465 c-73 -21 -152 -69 -206 -127 -28 -30 -50 -45 -59 -42 -8
4 -15 9 -15 13 0 4 -26 21 -57 37 -51 25 -69 29 -143 29 -90 0 -131 -15 -207
-72 -35 -27 -100 -108 -130 -163 -57 -102 -93 -254 -90 -375 l2 -70 -49 -40
c-67 -54 -131 -151 -157 -236 -18 -60 -21 -88 -17 -187 6 -134 27 -203 98
-324 45 -75 202 -243 271 -289 131 -88 215 -145 219 -149 3 -3 23 -14 45 -25
22 -11 51 -27 65 -36 53 -34 142 -60 214 -61 83 -1 141 13 214 52 l52 28 48
-23 c162 -78 361 -40 481 90 81 89 120 191 121 311 l0 62 48 12 c150 37 308
162 352 276 69 179 -16 394 -214 542 -16 12 -23 22 -15 23 82 4 118 35 110 97
-1 6 3 12 8 12 5 0 8 10 6 22 -3 12 2 30 11 39 22 24 25 86 5 109 -10 12 -32
20 -60 22 -43 3 -46 6 -73 58 -34 66 -85 114 -158 149 -46 21 -69 26 -140 26
-47 0 -97 -4 -111 -8 -23 -8 -27 -4 -45 34 -26 58 -107 137 -171 166 -69 32
-176 39 -253 18z m170 -165 c11 -7 5 -10 -25 -10 -60 0 -141 -41 -149 -76 -4
-15 -10 -23 -14 -17 -4 5 -20 14 -37 20 l-30 10 42 27 c75 50 174 71 213 46z
m-725 -160 c-63 -93 -95 -249 -75 -360 l7 -38 -59 2 -59 1 5 70 c11 153 83
303 171 356 45 28 47 24 10 -31z m729 -61 l-37 -29 -24 22 c-13 12 -20 25 -16
29 16 15 78 26 96 17 16 -8 14 -12 -19 -39z m-538 -11 c-4 -13 -14 -54 -22
-93 -12 -51 -23 -76 -43 -92 -14 -13 -30 -23 -34 -23 -22 0 32 196 61 218 26
20 45 15 38 -10z m1035 -4 c14 -7 31 -20 38 -28 12 -14 10 -16 -16 -16 -21 0
-39 10 -63 36 -30 33 -31 36 -9 29 13 -4 36 -13 50 -21z m-676 -114 c35 -34
41 -46 37 -71 l-5 -31 -26 29 c-26 29 -66 113 -53 113 3 0 25 -18 47 -40z m37
-158 c3 -10 1 -29 -5 -42 l-9 -25 -9 30 c-9 32 -5 55 10 55 5 0 11 -8 13 -18z
m-175 -259 c3 -68 3 -123 0 -123 -8 0 -77 215 -77 239 0 12 12 26 28 35 25 13
28 13 35 -7 5 -12 11 -77 14 -144z m337 99 c2 -4 -4 -13 -15 -20 -15 -10 -19
-10 -19 1 0 24 23 36 34 19z m-1044 -185 l17 -43 -48 -99 c-27 -55 -49 -111
-49 -125 -1 -14 -5 -34 -10 -45 -21 -54 -33 158 -12 230 14 48 70 140 80 131
3 -4 14 -26 22 -49z m925 -43 c16 -38 45 -56 91 -56 19 0 34 -2 34 -4 0 -1 -7
-29 -15 -61 -12 -46 -25 -67 -60 -101 -25 -24 -45 -47 -46 -50 0 -4 -2 -15 -4
-26 -2 -10 0 -29 5 -42 8 -20 4 -26 -24 -44 -19 -11 -49 -38 -68 -60 l-34 -41
-2 39 c-2 22 -7 54 -12 71 -5 18 -5 44 1 63 14 52 11 67 -16 74 -41 10 -46 64
-6 64 57 0 108 90 110 194 1 34 3 37 17 26 8 -8 21 -28 29 -46z m708 28 c31
-27 20 -56 -41 -114 -54 -52 -145 -117 -183 -130 -21 -8 -79 38 -79 63 0 20
23 61 50 90 8 9 30 17 48 17 42 1 60 15 79 64 15 37 15 37 61 31 26 -3 55 -13
65 -21z m-1188 -19 c28 -32 94 -162 124 -246 l21 -58 -47 -20 c-27 -11 -55
-24 -64 -29 -12 -6 -24 -1 -45 21 -15 16 -26 31 -23 33 2 2 18 11 36 20 42 21
53 70 27 115 -10 17 -27 34 -37 37 -23 7 -87 -4 -105 -18 -21 -18 -24 -2 -6
34 21 41 84 138 90 138 3 0 16 -12 29 -27z m1360 -150 c-21 -87 -71 -139 -180
-188 -82 -38 -125 -50 -125 -35 0 5 5 10 11 10 14 0 144 91 189 133 20 17 48
49 64 70 34 44 51 48 41 10z m-471 -403 c37 0 46 -12 46 -64 0 -63 -13 -109
-42 -152 -23 -34 -48 -45 -48 -21 0 6 -16 54 -35 106 -31 84 -34 98 -24 131
l11 37 39 -18 c21 -11 45 -19 53 -19z m-222 -236 c16 -42 26 -80 23 -85 -8
-12 -115 5 -115 20 0 3 11 29 25 56 13 28 25 58 25 68 0 36 16 14 42 -59z
m-338 -74 c-16 -16 -122 -39 -156 -34 -57 8 -113 33 -143 64 l-29 30 40 1 c59
2 88 6 156 24 35 9 71 18 82 20 10 3 21 7 24 10 3 3 12 -20 20 -51 8 -31 10
-60 6 -64z"/>
<path d="M2210 804 c-87 -40 -158 -123 -175 -202 -4 -18 -16 -37 -28 -43 -109
-59 -131 -258 -42 -374 50 -67 156 -87 221 -43 18 13 34 26 34 30 0 4 30 7 68
6 113 -1 181 26 244 97 44 48 63 95 64 160 1 74 -25 125 -87 173 -24 19 -44
44 -46 55 -11 74 -49 128 -107 152 -46 19 -88 16 -146 -11z m210 -395 c-18
-43 -77 -69 -147 -64 -67 5 -79 12 -58 35 13 14 22 15 53 7 49 -13 84 -4 125
32 17 16 34 28 36 25 2 -2 -2 -18 -9 -35z"/>
</g>
</svg>
