<?xml version="1.0" standalone="no"?>
<!DOCTYPE svg PUBLIC "-//W3C//DTD SVG 20010904//EN"
 "http://www.w3.org/TR/2001/REC-SVG-20010904/DTD/svg10.dtd">
<svg version="1.0" xmlns="http://www.w3.org/2000/svg"
 width="584.000000pt" height="584.000000pt" viewBox="0 0 584.000000 584.000000"
 preserveAspectRatio="xMidYMid meet">
<metadata>
Created by potrace 1.11, written by Peter Selinger 2001-2013
</metadata>
<g transform="translate(0.000000,584.000000) scale(0.100000,-0.100000)"
fill="#000000" stroke="none">
<path d="M2124 4378 c-16 -16 -85 -57 -154 -91 -69 -33 -144 -75 -168 -93 -24
-18 -57 -36 -75 -40 -52 -11 -144 -61 -276 -151 -122 -83 -188 -118 -266 -143
-22 -7 -56 -27 -75 -45 -19 -18 -60 -50 -90 -72 -59 -43 -120 -106 -120 -124
0 -7 -10 -9 -24 -5 -19 5 -30 -1 -51 -27 -15 -17 -53 -59 -84 -92 -171 -180
-292 -358 -341 -500 -22 -64 -20 -243 5 -430 43 -331 224 -666 386 -714 31 -9
63 -33 112 -82 69 -69 70 -70 186 -104 152 -45 370 -96 466 -109 17 -3 48 -7
70 -11 75 -11 100 -14 185 -21 47 -3 96 -8 110 -9 13 -2 42 4 65 12 29 11 85
16 201 17 l161 1 99 75 c54 41 122 97 151 124 50 45 53 51 53 96 0 95 -29 145
-168 287 l-71 73 -198 5 c-312 8 -583 24 -693 40 -181 26 -265 42 -391 76
l-77 21 -35 76 c-53 114 -56 144 -19 195 30 42 52 102 45 123 -2 5 63 75 144
155 197 194 316 281 450 327 30 11 72 36 96 59 119 111 293 192 600 279 180
50 213 65 279 123 197 174 199 428 3 512 -55 24 -64 36 -44 56 13 13 -14 43
-39 43 -9 0 -30 9 -47 20 -16 11 -38 20 -48 20 -14 0 -16 4 -8 18 14 26 -7 48
-23 26 -10 -13 -15 -12 -41 10 -34 29 -54 31 -119 14 -33 -9 -51 -9 -69 -1
-22 10 -28 8 -53 -19z"/>
<path d="M4808 3945 c-3 -3 -43 -8 -148 -20 -30 -4 -66 -8 -80 -10 -40 -5
-113 -17 -134 -21 -10 -2 -43 -6 -74 -10 -30 -3 -63 -8 -71 -9 -9 -2 -52 -6
-97 -10 -77 -7 -83 -6 -120 19 -73 48 -149 37 -174 -24 -7 -16 -18 -30 -24
-31 -6 0 -18 -2 -26 -3 -8 -2 -53 -7 -100 -11 -47 -3 -98 -8 -115 -11 -136
-18 -447 -37 -620 -38 l-139 -1 -6 -30 c-4 -17 -15 -43 -24 -58 -25 -37 -17
-107 25 -237 30 -92 40 -109 90 -160 80 -83 75 -83 429 -65 108 5 299 24 323
31 22 7 19 -9 -19 -94 -13 -29 -36 -80 -50 -115 -14 -34 -37 -76 -49 -93 -13
-17 -27 -44 -31 -60 -4 -16 -39 -114 -79 -219 -67 -177 -136 -374 -137 -392 0
-5 -4 -15 -8 -23 -5 -9 -11 -36 -15 -60 -3 -25 -8 -58 -11 -75 -12 -68 -6
-200 9 -236 9 -20 24 -70 33 -110 9 -41 27 -95 40 -121 13 -26 21 -53 19 -60
-4 -9 17 -25 57 -46 118 -62 143 -77 157 -95 12 -17 22 -18 90 -12 142 13 212
77 213 196 0 58 -18 87 -74 118 -26 13 -53 39 -66 61 -21 36 -21 41 -7 111 33
171 53 234 98 312 16 26 35 73 43 104 16 64 37 112 71 163 12 19 31 62 43 94
11 32 35 86 54 120 18 34 48 104 66 155 18 52 59 153 91 223 32 71 62 141 65
156 4 15 10 32 14 37 4 6 9 19 11 29 4 20 9 22 109 31 36 3 79 8 95 10 37 6
234 33 295 41 25 3 112 7 193 10 120 3 160 8 207 25 33 12 71 19 84 17 26 -5
39 6 94 76 28 36 29 104 3 163 -19 42 -188 219 -232 244 -17 10 -75 14 -206
15 -100 1 -183 1 -185 -1z"/>
</g>
</svg>
