<svg id="evolution" enable-background="new 0 0 300 300" height="512" viewBox="0 0 300 300" width="512" xmlns="http://www.w3.org/2000/svg"><g><circle cx="134" cy="74.002" r="4"/><path d="m244.502 241.515c-1.562-1.562-4.094-1.562-5.656 0l-4.562 4.563-4.562-4.563c-1.562-1.562-4.094-1.562-5.656 0-1.562 1.561-1.562 4.094 0 5.656l4.563 4.563-4.563 4.563c-1.562 1.562-1.562 4.096 0 5.656.781.781 1.805 1.172 2.828 1.172s2.047-.391 2.828-1.172l4.562-4.563 4.562 4.563c.781.781 1.805 1.172 2.828 1.172s2.047-.391 2.828-1.172c1.562-1.561 1.562-4.094 0-5.656l-4.563-4.563 4.563-4.563c1.562-1.562 1.562-4.095 0-5.656z"/><path d="m110.83 97.682c-2.362 0-4.276 1.915-4.276 4.277s1.915 4.276 4.276 4.276 4.276-1.915 4.276-4.276-1.914-4.277-4.276-4.277z"/><path d="m119.781 61.33c.682.455 1.453.672 2.215.672 1.293 0 2.561-.625 3.332-1.781l8-12c.896-1.344.896-3.094 0-4.438l-8-12c-1.229-1.838-3.713-2.342-5.547-1.109-1.838 1.225-2.334 3.709-1.109 5.547l6.521 9.781-6.521 9.781c-1.225 1.838-.729 4.322 1.109 5.547z"/><path d="m218 158.002v-4h6c12.131 0 22-9.869 22-22v-12.195c4.879-2.82 8-8.062 8-13.805 0-5.74-3.121-10.982-8-13.805v-30.523c0-13.053-12.5-23.672-27.865-23.672h-68.135c-2.209 0-4 1.791-4 4 0 10.043 4.547 19.211 12 26.131v24.064c-4.879 2.822-8 8.064-8 13.805 0 5.742 3.121 10.984 8 13.805v12.195c0 12.131 9.869 22 22 22h6v4c-12.04 0-23.275 4.436-32 12.298v-1.48c0-30.227-24.592-54.818-54.818-54.818h-6.363c-30.227 0-54.819 24.591-54.819 54.818v38.664c0 9.92 7.858 17.976 17.667 18.432-13.034 8.591-21.667 23.341-21.667 40.086 0 2.209 1.791 4 4 4h116c2.209 0 4-1.791 4-4 0-3.017-.314-5.959-.849-8.823l31.669-7.169c4.951-1.119 9.17-4.1 11.879-8.393 2.709-4.291 3.582-9.383 2.461-14.336l-2.207-9.746c-.635-2.809-1.925-5.338-3.658-7.533h64.705c2.209 0 4-1.791 4-4 0-26.467-21.533-48-48-48zm-52-26v-14.734c0-1.693-1.066-3.203-2.66-3.77-3.193-1.135-5.34-4.146-5.34-7.496 0-3.348 2.146-6.361 5.34-7.496 1.596-.568 2.66-2.078 2.66-3.77v-20.693c7.514 4.385 16.637 6.959 26.461 6.959h17.4c2.209 0 4-1.791 4-4s-1.791-4-4-4h-17.4c-19.525 0-35.701-11.789-38.143-27h63.816c10.953 0 19.865 7.031 19.865 15.672v33.062c0 1.691 1.064 3.201 2.66 3.77 3.193 1.135 5.34 4.148 5.34 7.496 0 3.35-2.146 6.361-5.34 7.496-1.594.566-2.66 2.076-2.66 3.77v14.734c0 7.719-6.281 14-14 14h-44c-7.718 0-13.999-6.282-13.999-14zm44 22v12c0 2.205-1.795 4-4 4h-8c-2.205 0-4-1.795-4-4v-12zm-49.539 56c1.365 4.226 4.061 7.847 7.873 10.248 4.014 2.527 8.715 3.447 13.328 2.648l1.771 7.826-33.158 7.506c-.337.076-.639.213-.958.321-3.492-4.987-7.896-9.281-12.984-12.635 8.957-.416 16.208-7.182 17.412-15.914zm-103.943 8c-5.799 0-10.518-4.719-10.518-10.518v-38.664c0-25.816 21.002-46.818 46.818-46.818h6.363c25.816 0 46.818 21.002 46.818 46.818v38.664c0 5.799-4.719 10.518-10.518 10.518h-25.481-28zm46.219 44c1.656-4.646 6.055-8 11.263-8h16c2.209 0 4-1.791 4-4s-1.791-4-4-4h-16c-7.953 0-14.779 4.701-18 11.439-3.221-6.738-10.047-11.439-18-11.439h-16c-2.209 0-4 1.791-4 4s1.791 4 4 4h16c5.208 0 9.606 3.354 11.263 8h-47.064c2.014-20.184 19.096-36 39.801-36h28c20.705 0 37.787 15.816 39.801 36zm91.197-24.655c-1.568 2.486-4.01 4.211-6.877 4.859l-32.054 7.258c-.47-1.276-.989-2.526-1.562-3.749l32.734-7.409c1.824-.412 3.377-1.51 4.375-3.09 1-1.58 1.322-3.457.908-5.283l-2.207-9.75c-.412-1.824-1.51-3.379-3.09-4.377-1.57-.992-3.439-1.32-5.289-.908-2.85.654-5.789.148-8.275-1.418-2.496-1.572-4.227-4.016-4.877-6.883l-1.324-5.852c-.646-2.859-.139-5.805 1.432-8.293 1.57-2.49 4.01-4.217 6.893-4.869.662-.164 1.209.09 1.471.254.266.166.736.553.898 1.262.158.701-.094 1.244-.26 1.506-.164.262-.547.725-1.25.885-3.766.852-6.135 4.607-5.281 8.373l1.322 5.85c.412 1.822 1.51 3.377 3.104 4.383 1.586.994 3.455 1.314 5.277.9 2.857-.65 5.801-.143 8.291 1.426 2.486 1.568 4.211 4.01 4.859 6.879l2.209 9.748c.647 2.867.141 5.814-1.427 8.298zm40.066-35.345v-8c0-2.209-1.791-4-4-4s-4 1.791-4 4v8h-47.018l-.673-2.979c2.188-.727 4.039-2.174 5.285-4.15 1.426-2.258 1.887-4.938 1.295-7.543-.594-2.619-2.176-4.846-4.453-6.271-2.266-1.42-4.941-1.875-7.506-1.271-4.945 1.117-9.16 4.1-11.869 8.396-2.618 4.15-3.48 9.036-2.531 13.818h-4.53v-20.054c.028-.034.071-.045.098-.08 7.643-10.082 19.27-15.865 31.902-15.865 0 6.617 5.383 12 12 12h8c6.617 0 12-5.383 12-12 20.705 0 37.787 15.816 39.801 36h-23.801z"/><circle cx="182" cy="106.002" r="4"/><circle cx="222" cy="106.002" r="4"/><path d="m218 118.002h-32c0 6.627 7.163 12 16 12s16-5.373 16-12z"/><path d="m120.117 188.904c0-1.193-.084-2.387-.252-3.572 10.354-2.328 18.135-11.932 18.135-23.389 0-13.193-10.318-23.926-23-23.926h-38c-12.682 0-23 10.732-23 23.926 0 11.457 7.781 21.061 18.135 23.389-.168 1.186-.252 2.379-.252 3.572 0 13.84 10.818 25.098 24.117 25.098s24.117-11.258 24.117-25.098zm-8.959-5.758c.637 1.887.959 3.824.959 5.758 0 9.428-7.23 17.098-16.117 17.098s-16.117-7.67-16.117-17.098c0-1.934.322-3.871.959-5.758.412-1.221.211-2.566-.539-3.611-.752-1.047-1.961-1.668-3.25-1.668-.051 0-.105.002-.16.004-8.223-.063-14.893-7.184-14.893-15.928 0-8.781 6.729-15.926 15-15.926h38c8.271 0 15 7.145 15 15.926 0 8.744-6.67 15.865-14.893 15.928-1.438-.059-2.629.576-3.41 1.664-.75 1.045-.951 2.391-.539 3.611z"/><path d="m99.545 179.456c-1.305 0-2.364 1.058-2.364 2.364s1.058 2.364 2.364 2.364 2.364-1.058 2.364-2.364-1.058-2.364-2.364-2.364z"/><path d="m92.455 179.456c-1.305 0-2.364 1.058-2.364 2.364s1.058 2.364 2.364 2.364 2.364-1.058 2.364-2.364-1.059-2.364-2.364-2.364z"/><circle cx="80" cy="160.002" r="6"/><circle cx="112" cy="160.002" r="6"/><path d="m50 106.002c2.209 0 4-1.791 4-4v-8c0-2.209-1.791-4-4-4s-4 1.791-4 4v8c0 2.209 1.791 4 4 4z"/><path d="m50 83.978c2.209 0 4-1.791 4-4v-14.023c0-2.209-1.791-4-4-4s-4 1.791-4 4v14.023c0 2.209 1.791 4 4 4z"/><path d="m77.891 50.002h14.023c2.209 0 4-1.791 4-4s-1.791-4-4-4h-14.023c-2.209 0-4 1.791-4 4s1.791 4 4 4z"/><path d="m50.395 55.799c.58.293 1.197.432 1.805.432 1.461 0 2.867-.801 3.572-2.191 1-1.973 2.746-3.996 8.127-4.037 2.209-.018 3.986-1.822 3.969-4.031-.018-2.199-1.805-3.969-4-3.969-.01 0-.021 0-.031 0-7.285.057-12.398 2.891-15.201 8.42-.999 1.969-.212 4.378 1.759 5.376z"/><path d="m106 50.002h8c2.209 0 4-1.791 4-4s-1.791-4-4-4h-8c-2.209 0-4 1.791-4 4s1.791 4 4 4z"/></g></svg>