<svg id="_x33_0" enable-background="new 0 0 64 64" height="512" viewBox="0 0 64 64" width="512" xmlns="http://www.w3.org/2000/svg"><path d="m60 7c1.654 0 3-1.346 3-3s-1.346-3-3-3h-56c-1.654 0-3 1.346-3 3s1.346 3 3 3h2.613l-5.613 16.838v1.162c0 2.395 1.063 4.542 2.736 6.009-.068-.002-.135-.009-.204-.009h-2.532v14l3.568 12.274c.992 3.372 4.138 5.726 7.653 5.726 2.705 0 5.203-1.353 6.682-3.619l10.097-15.484v5.103h-2v4h-2v4h-2v6h18v-6h-2v-4h-2v-4h-2v-4.716l10.098 15.097c1.478 2.266 3.976 3.619 6.681 3.619 3.515 0 6.661-2.354 7.652-5.726l3.527-11.992.042-14.282h-2.532c-.069 0-.136.007-.204.009 1.673-1.467 2.736-3.614 2.736-6.009v-1.162l-5.613-16.838zm-57-3c0-.551.448-1 1-1h56c.552 0 1 .449 1 1s-.448 1-1 1h-56c-.552 0-1-.449-1-1zm33.672 15.914-5.379 5.379 1.414 1.414 5.379-5.379c.209-.208.498-.328.793-.328.618 0 1.121.503 1.121 1.121 0 .3-.116.581-.328.793l-5.379 5.379 1.414 1.414 5.379-5.379c.209-.208.498-.328.793-.328.618 0 1.121.503 1.121 1.121 0 .3-.116.581-.328.793l-11.672 11.672-7.093-7.093c.057-.331.093-.666.093-1.007v-.703c.88-.341 1.557-1.068 1.843-1.974.332.118.68.191 1.036.191 1.683 0 3.051-1.342 3.11-3.011 1.669-.059 3.011-1.427 3.011-3.11 0-.144-.022-.283-.041-.424l2.127-2.127c.209-.208.498-.328.793-.328.618 0 1.121.503 1.121 1.121 0 .3-.116.581-.328.793zm4.372 14.629-6.084 6.084-1.672-2.5 6.774-6.773c.104 1.119.431 2.208.982 3.189zm-17.044-12.422c0-.618.503-1.121 1.121-1.121.295 0 .584.12.793.328l1.758 1.758c.212.212.328.493.328.793 0 .618-.503 1.121-1.121 1.121-.295 0-.584-.12-.793-.328l-1.758-1.758c-.212-.212-.328-.493-.328-.793zm3-3c0-.618.503-1.121 1.121-1.121.295 0 .584.12.793.328l1.758 1.758c.212.212.328.493.328.793 0 .618-.503 1.121-1.121 1.121-.295 0-.584-.12-.793-.328l-1.758-1.758c-.212-.212-.328-.493-.328-.793zm3-3c0-.618.503-1.121 1.121-1.121.295 0 .584.12.793.328l.758.758c.212.212.328.493.328.793 0 .618-.503 1.121-1.121 1.121-.295 0-.584-.12-.793-.328l-.758-.758c-.212-.212-.328-.493-.328-.793zm-7.879 7.879c.295 0 .584.12.793.328l.758.758c.212.212.328.493.328.793 0 .618-.503 1.121-1.121 1.121-.295 0-.584-.12-.793-.328l-.758-.758c-.212-.212-.328-.493-.328-.793 0-.618.503-1.121 1.121-1.121zm10.879-10.354c-.539-.408-1.199-.646-1.879-.646-.041 0-.08.011-.121.012v-6.012h2zm-23.72-6.646 5.333 16h-11.226l5.333-16zm-6.28 18h12c0 3.309-2.691 6-6 6s-6-2.691-6-6zm14 0v-1.162l-5.613-16.838h17.613v6.845c-.586.546-.958 1.311-.989 2.166-1.631.058-2.942 1.368-3 3-1.631.058-2.942 1.368-3 3-1.669.059-3.011 1.427-3.011 3.11 0 .834.324 1.618.914 2.207l.758.758c.369.369.832.624 1.328.771v.629c0 .792-.232 1.56-.672 2.219l-7.847 11.77-1.148-5.361c-.444-2.072-1.601-3.858-3.177-5.122 4.339-.084 7.844-3.634 7.844-7.992zm.227 33.288c-1.108 1.698-2.979 2.712-5.006 2.712-2.634 0-4.991-1.764-5.734-4.291l-3.487-11.853v-11.856h.532c3.279 0 6.158 2.327 6.846 5.533l1.622 7.572v1.29c0 2.593 1.288 4.999 3.445 6.438l1.109-1.664c-1.599-1.067-2.554-2.852-2.554-4.774v-1.092l8.992-13.488c.056-.084.096-.175.148-.261l6.594 6.595zm21.773 2.712h-14v-2h14zm-12-4v-2h10v2zm2-4v-2h6v2zm4-4h-2v-8.17l.78-1.197.065-.065 1.155 1.726zm28-16v11.856l-3.486 11.854c-.743 2.526-3.101 4.29-5.735 4.29-2.027 0-3.898-1.014-5.013-2.722l-10.673-15.957 6.113-6.112 7.794 10.131v1.054c0 1.922-.955 3.707-2.555 4.773l1.109 1.664c2.158-1.437 3.446-3.844 3.446-6.436v-1.29l1.622-7.571c.688-3.207 3.566-5.534 6.846-5.534zm-9.333 5.114-1.192 5.563-7.231-9.4c-.803-1.043-1.244-2.342-1.244-3.658v-1.205l2.086-2.086c.59-.589.914-1.373.914-2.207 0-1.684-1.342-3.051-3.011-3.11-.058-1.632-1.369-2.942-3-3-.059-1.669-1.427-3.011-3.11-3.011-.3 0-.594.058-.879.143v-9.143h17.613l-5.613 16.838v1.162c0 4.358 3.505 7.908 7.844 7.992-1.576 1.265-2.733 3.05-3.177 5.122zm3.333-7.114c-3.309 0-6-2.691-6-6h12c0 3.309-2.691 6-6 6zm5.613-8h-11.226l5.333-16h.559z"/></svg>