<svg width="123" height="112" viewBox="0 0 123 112" fill="none" xmlns="http://www.w3.org/2000/svg">
<g clip-path="url(#clip0)">
<path d="M93 35.36C93.39 34.74 93.76 34.1 94.1 33.45C98.46 25.14 96.07 15.79 87.23 11.76C82.87 9.77 78.33 9.93 74.14 11.41C74.03 11.1 73.93 10.78 73.8 10.47C70.32 1.87 61.2 -1.94 52.47 0.96C48.03 2.44 44.45 5.42 41.66 9.1C37.43 5.44 32.07 3.43 26.28 5.44C17.58 8.47 12.55 18.68 11.18 27.18C10.64 30.52 10.56 33.86 10.85 37.16C9.03 38.22 7.32 39.59 5.82 41.33C-1.35 49.61 -1.48 61.05 3.13 70.61C8.6 81.98 19.43 89.08 29.75 95.6C30.35 95.98 30.95 96.16 31.52 96.21C35.54 99.36 40.84 100.93 46.36 100.15C49.97 99.64 53.13 98.29 55.76 96.35C60.11 99.29 65.87 100.2 71.17 98.95C80.7 96.7 86.52 87.67 86.44 78.15C86.43 77.38 86.38 76.63 86.3 75.88C95.71 73.79 105.5 67.54 106.32 57.46C107.04 48.6 100.65 40.18 93 35.36ZM87.49 21.96C88.98 24.37 88.45 26.87 87.31 29.19C86.68 24.96 84.92 21.14 81.41 18.38C83.83 18.63 86.12 19.74 87.49 21.96ZM75.52 24.14C76.34 24.67 77.11 25.4 77.78 26.38C78.87 27.97 79.48 29.68 79.76 31.45C77.73 31.61 75.74 32.11 73.94 32.92C74.69 30.06 75.26 27.1 75.52 24.14ZM62.99 40.22C62.56 40.3 62.15 40.45 61.81 40.72C61.46 40.99 61.13 41.25 60.82 41.53C61.06 39.26 62.97 35.05 63.21 34.52C64 34.24 64.76 33.87 65.49 33.44C64.84 35.79 64.04 38.12 62.99 40.22ZM61.71 18.71C61.1 19.19 60.49 19.71 59.88 20.27C59.01 19.45 58.15 18.63 57.28 17.81C57.85 17.79 58.44 17.65 59.04 17.34C60.99 16.33 62.46 16.61 63.4 17.53C62.82 17.89 62.25 18.28 61.71 18.71ZM50.07 11.64C53.43 8.5 58.7 6.86 62.6 8.98C60.13 8.7 57.49 9.14 55 10.42C53.48 11.2 52.92 12.49 53.01 13.77C52.8 13.57 52.6 13.38 52.39 13.18C51.53 12.36 50.56 12.05 49.63 12.08C49.78 11.93 49.92 11.78 50.07 11.64ZM55.17 33.09C54.79 34.01 54.41 34.95 54.08 35.9C53.37 31.25 52.16 26.64 50.45 22.38C52.02 23.86 53.59 25.35 55.16 26.83C54.41 28.84 54.27 30.97 55.17 33.09ZM42.27 30.24C42.39 28.65 42.62 27.02 42.97 25.38C43.92 27.96 44.64 30.64 45.24 33.24C46.05 36.76 46.56 40.32 46.74 43.92C46.83 45.75 46.74 47.57 46.8 49.4C46.88 51.91 46.68 50.82 46.02 48.95C43.73 42.56 41.75 37.19 42.27 30.24ZM31.38 28.39C31.51 26.33 33.29 16.34 36.59 18.75C36.13 20.05 35.73 21.36 35.41 22.66C34.33 27.07 33.93 31.93 34.28 36.74C31.98 34.86 31.18 31.66 31.38 28.39ZM22.44 19.16C24.33 16.14 26.65 14.04 29.15 13.29C26.53 16.19 24.72 20.43 24.02 23.73C23.25 27.38 23.28 31.29 24.22 34.82C22.37 34.52 20.51 34.45 18.68 34.63C18.52 29.27 19.57 23.75 22.44 19.16ZM10.23 58.75C8.99 61.59 9.9 65.38 11.17 68.92C9.54 66.09 8.41 62.99 8 59.55C7.43 54.69 8.95 49.3 12.51 45.83C13.32 48.61 14.4 51.31 15.67 53.93C13.61 55.36 11.31 56.27 10.23 58.75ZM21.35 73.13C20.12 71.94 19.56 67.53 19.02 65.86C18.09 62.96 17.45 62.6 19.64 60.91C20.64 62.45 21.7 63.98 22.82 65.48C22.18 68.29 22.35 71.33 23.33 74.08C22.65 73.98 21.99 73.75 21.35 73.13ZM23.88 82.09C23.93 82.11 23.98 82.12 24.02 82.14C24.12 82.18 24.2 82.23 24.3 82.28C24.3 82.32 24.31 82.37 24.31 82.41C24.16 82.3 24.02 82.19 23.88 82.09ZM21.59 46.03C21.49 46.31 21.38 46.58 21.27 46.85C20.71 45.42 20.22 43.96 19.83 42.47C21.67 42.35 23.53 42.67 25.3 43.3C23.76 43.37 22.25 44.2 21.59 46.03ZM31.46 56.06C29.93 56.47 28.6 57.14 27.46 58.01C26.83 57.12 26.22 56.21 25.64 55.29C27.23 53.13 28.41 50.73 29.32 48.16C29.73 47.01 29.6 46.02 29.15 45.23C29.84 45.69 30.51 46.17 31.13 46.71C35.93 50.84 38.51 56.91 40.49 62.77C41.15 64.74 42.91 68.24 43.13 70.7C42.85 70.22 42.52 69.76 42.12 69.34C40.21 67.34 37.6 66.78 35.05 67.15C34.17 66.22 33.31 65.27 32.45 64.29C32.79 64.08 33.15 63.89 33.59 63.77C38.56 62.46 36.45 54.73 31.46 56.06ZM34.76 88.4C34.63 88.23 34.52 88.05 34.4 87.87C35 87.91 35.61 87.92 36.21 87.9C40.47 87.74 44.75 86.53 48.93 85.27C49.09 86.44 49.37 87.6 49.78 88.73C49.99 89.31 50.23 89.86 50.5 90.39C45.58 93.46 38.49 93.14 34.76 88.4ZM57.98 62.23C56.54 63.56 56.43 66.22 57.78 67.67C57.68 67.71 57.58 67.73 57.49 67.78C54.78 69.15 52.66 71.25 51.19 73.75C51.27 72.03 51.04 70.24 50.64 68.53C49.91 65.43 49 62.23 47.87 59.07C47.96 59.07 48.06 59.08 48.15 59.07C53.01 58.88 54.52 54.43 54.77 50.31C54.82 49.42 54.85 48.51 54.87 47.6C54.89 47.62 54.9 47.64 54.91 47.66C55.41 48.3 55.98 48.85 56.6 49.32C56.65 52.61 60.58 54.29 62.88 52.84C63.37 54.74 63.66 56.7 63.76 58.69C62.73 58.57 61.64 58.85 60.67 59.74C59.78 60.58 58.88 61.41 57.98 62.23ZM61.22 90.36C62.61 88.09 63.58 85.56 64.13 82.9L66.76 90.17C66.93 90.65 67.18 91.09 67.48 91.47C65.31 91.67 63.09 91.33 61.22 90.36ZM74.57 88.44C74.54 88.3 74.53 88.17 74.48 88.03C73.45 85.18 72.41 82.32 71.38 79.47C70.84 77.97 69.62 76.85 68.13 76.59C68.15 76.56 68.17 76.53 68.18 76.5C68.75 75.42 69.24 74.31 69.67 73.18C72.05 74.95 75.02 76.14 78.17 76.51C78.93 80.94 77.91 85.47 74.57 88.44ZM78.9 61.09C76.79 59.11 74.32 57.49 71.56 56.35C71.34 54.47 70.99 52.6 70.52 50.77C70.77 50.76 71.02 50.73 71.27 50.67C72.94 50.27 74.58 49.74 76.17 49.1C75.76 53.19 82.5 54.66 84.12 50.2C84.39 49.45 84.66 48.68 84.92 47.88C85.3 48.04 85.71 48.15 86.17 48.2C87.74 48.36 91.58 48.39 91.18 51.27C91.03 52.33 89.04 53.96 88.35 54.67C86.2 56.85 83.75 58.65 81.04 60.07C80.45 60.39 79.71 60.74 78.9 61.09ZM87.04 67.3C86.1 67.62 85.11 67.91 84.11 68.15C84.02 67.97 83.91 67.8 83.82 67.62C86.59 66.23 89.1 64.6 91.12 62.95C93.6 60.93 96.62 58.15 98.31 54.97C98.35 55.32 98.37 55.68 98.38 56.03C98.43 62.2 92.13 65.6 87.04 67.3Z" fill="#FBAD18"/>
<path d="M120.91 90.68C119.79 88.96 118.15 87.62 116.26 86.72C116.1 83.63 114.94 80.69 112.49 78.96C107.84 75.69 101.35 79.38 98.32 83.26C96.73 85.3 95.87 87.63 95.72 89.97C87.9 92.08 88.07 107.37 95.99 110.56C99.23 111.87 103.17 110.9 104.91 108.07C109.59 108.72 114.3 108.31 118.12 105.03C122.28 101.46 124.06 95.51 120.91 90.68ZM97.61 97.7C97.81 97.75 97.99 97.76 98.18 97.77C98.4 98.05 98.63 98.32 98.87 98.58C98.64 98.6 98.42 98.62 98.19 98.66C98.1 98.13 97.92 97.77 97.61 97.7ZM112.06 99.55C109.47 101.06 106.14 100.49 103.13 99.67C104 99.3 104.75 98.62 105.23 97.79C108.97 99.88 112.12 98.31 114.09 95.27C114.12 95.34 114.16 95.39 114.19 95.47C114.89 97.2 113.55 98.68 112.06 99.55Z" fill="#FBAD18"/>
<path d="M25.87 81.29H23.84L18.99 80.43L17.82 79.96H16.88L14.61 79.57H14.14L11.79 78.71L10.46 77.3L9.3 75.27L8.44 72.3L8.36 69.64L9.14 63.78L12.5 53.85L15.08 48.69L20.86 39.7L24.69 35.17L33.52 27.9L39.85 24.15L43.21 23.21L46.02 23.91L47.66 25.08L48.36 25.24L51.41 26.8L53.05 27.5L54.54 30.39L54.38 31.48L52.27 32.73L50.08 34.45L48.44 34.92L44.92 37.19L44.06 37.58L38.12 42.5L34.29 46.8L29.83 53.37L26.39 60.41L23.81 67.45L23.19 71.67H23.74L41.33 64.48L43.52 63.93L46.65 62.29L49.31 61.59L51.11 62.29L50.72 64.87L50.33 66.04L50.1 67.6H49.47L49.39 68.22L50.48 67.36L50.79 67.59L50.4 67.82L49.93 68.76H50.63L50 69.85H49.45L49.37 70.4L50.07 70.01L49.84 70.48L48.9 71.42L50.39 70.56L49.14 71.81L48.59 72.04L47.96 73.06L47.41 73.37L46.71 74.31L43.58 77.12L41.23 77.9L40.45 78.37L34.9 80.64L33.81 80.87L32.09 81.49L29.04 81.72L26.5 81.6L25.87 81.29Z" fill="black"/>
<path d="M56.9 81.99L57.45 71.75L67.14 39.54L63.7 40.24L61.28 39.46L60.26 38.6L58.31 35.63L57.68 34L56.98 33.06V30.48L57.92 28.92L69.1 24.93L84.89 21.72L93.57 21.09L100.14 21.79L101.39 22.57L101.62 23.66V24.68L101.93 25.7L101.23 26.17L101.31 27.03L100.61 27.66L100.84 27.82L100.29 28.13L99.82 29.07H100.29L100.76 28.91L99.67 29.69L100.69 30.32L98.97 31.02H99.52L99.91 31.49L99.44 33.05L99.67 33.21L98.73 34.23L98.81 34.7H97.79L96.93 35.4L93.65 35.71L93.42 36.65H88.57L84.43 37.2L81.69 43.53L77.39 56.19L77.86 54.39L77.55 54.08L76.77 55.88L76.38 56.19L76.07 56.89H76.54L75.92 57.44L74.83 63.93L74.44 64.16L73.74 66.82L72.88 68.77L73.04 69.01L72.81 69.71L72.97 69.94L72.58 71.43L72.35 71.74L71.41 73.54L72.19 72.92L72.03 73.39L71.48 74.09H71.87L71.4 75.89L70.93 76.28L71.09 76.59H71.4L70.85 77.29L70.3 78.77L70.46 79.01L69.76 79.48L69.13 80.42H68L67.45 80.73L67.61 80.26L65.73 81.67L65.96 80.73L65.49 80.96L65.65 80.41L64.63 81.04L63.77 81.98L63.46 81.59L62.76 81.98L62.06 82.92L61.9 82.45L61.27 82.92H60.1L59.79 84.17L59.17 84.56H57.92L57.37 84.33L56.9 81.99ZM68.08 80.04L68.78 79.49L68.86 79.26H68.31L68.08 80.04ZM70.04 69.02L70.2 69.25L70.12 68.78L70.04 69.02ZM72.07 65.81L72.15 66.51V65.57L72.07 65.81Z" fill="black"/>
</g>
<defs>
<clipPath id="clip0">
<rect width="122.51" height="111.13" fill="white"/>
</clipPath>
</defs>
</svg>
