<svg width="415" height="59" viewBox="0 0 415 59" fill="none" xmlns="http://www.w3.org/2000/svg">
<g clip-path="url(#clip0)">
<path d="M21.07 2.67C22.55 2.67 24.15 2.91 25.87 3.38C27.59 3.85 29.19 4.55 30.67 5.45H30.73L30.67 3.06H35.05L34.37 16.3H30.62C30.28 13.15 29.35 10.74 27.84 9.05C26.32 7.36 24.24 6.52 21.59 6.52C19.62 6.52 17.87 6.98 16.33 7.88C14.79 8.78 13.5 10.03 12.44 11.6C11.38 13.17 10.55 14.93 9.97001 16.89C9.38001 18.84 9.03 20.84 8.92 22.89C8.77 26.15 9.1 29.06 9.91 31.61C10.72 34.17 11.99 36.19 13.72 37.66C15.44 39.14 17.58 39.9 20.11 39.93C22.38 39.97 24.75 39.43 27.21 38.31C29.67 37.19 31.87 35.38 33.8 32.88L36.02 35.15C34.05 37.69 32.01 39.61 29.91 40.92C27.81 42.23 25.77 43.11 23.8 43.56C21.83 44.01 20.05 44.24 18.46 44.24C15.54 44.24 12.92 43.72 10.59 42.68C8.26 41.64 6.28 40.2 4.65 38.36C3.01 36.56 1.8 34.41 1 31.97C0.200004 29.53 -0.119996 26.88 0.0300044 24.04C0.180004 21.46 0.740004 18.91 1.71 16.37C2.68 13.83 4.04 11.53 5.8 9.46C7.56 7.4 9.72 5.75 12.28 4.52C14.84 3.29 17.77 2.67 21.07 2.67Z" fill="black"/>
<path d="M48.97 14.32C51.09 14.32 53.01 14.81 54.74 15.8C56.46 16.79 57.84 18.22 58.86 20.12C59.88 22.02 60.39 24.31 60.39 27C60.39 29.99 59.81 32.79 58.66 35.38C57.5 37.98 55.87 40.06 53.74 41.63C51.62 43.2 49.08 43.99 46.12 43.99C43.58 43.99 41.46 43.41 39.75 42.26C38.04 41.11 36.77 39.54 35.94 37.57C35.11 35.6 34.69 33.44 34.69 31.09C34.69 28.06 35.27 25.27 36.42 22.73C37.58 20.19 39.22 18.15 41.36 16.62C43.52 15.09 46.05 14.32 48.97 14.32ZM48.12 18.07C46.98 18.03 45.99 18.53 45.14 19.58C44.29 20.62 43.62 22.02 43.15 23.76C42.68 25.5 42.44 27.42 42.44 29.5C42.44 30.64 42.51 31.83 42.64 33.08C42.77 34.33 43.02 35.5 43.38 36.58C43.74 37.66 44.21 38.54 44.8 39.22C45.39 39.9 46.14 40.24 47.05 40.24C48.03 40.24 48.87 39.86 49.55 39.1C50.23 38.34 50.79 37.37 51.23 36.17C51.67 34.98 51.99 33.72 52.2 32.39C52.41 31.06 52.53 29.81 52.57 28.64C52.61 27.62 52.57 26.5 52.46 25.29C52.35 24.08 52.14 22.92 51.84 21.82C51.54 20.72 51.08 19.82 50.48 19.12C49.84 18.42 49.07 18.07 48.12 18.07Z" fill="black"/>
<path d="M84.15 43.99C82.07 43.99 80.65 43.42 79.92 42.28C79.18 41.14 78.81 39.57 78.81 37.56C78.81 36.42 78.89 35.14 79.04 33.72C79.19 32.3 79.35 30.85 79.52 29.37C79.69 27.89 79.85 26.5 80 25.19C80.15 23.88 80.23 22.79 80.23 21.92C80.23 21.35 80.17 20.89 80.06 20.53C79.95 20.17 79.78 19.91 79.55 19.76C79.32 19.61 79.02 19.53 78.64 19.53C77.96 19.53 77.25 19.95 76.51 20.78C75.77 21.61 75.06 22.74 74.38 24.16C73.7 25.58 73.09 27.15 72.56 28.88C72.03 30.6 71.6 32.37 71.28 34.17C70.96 35.97 70.8 37.67 70.8 39.26C70.8 39.75 70.82 40.44 70.86 41.34C70.9 42.23 70.94 42.9 70.97 43.36H63.64C63.56 42.56 63.52 42.01 63.5 41.68C63.48 41.36 63.47 41.01 63.47 40.63C63.47 39.83 63.52 38.9 63.61 37.82C63.7 36.74 63.83 35.57 63.98 34.3C64.13 33.03 64.28 31.77 64.43 30.52C64.54 29.5 64.67 28.5 64.8 27.54C64.93 26.57 65.05 25.66 65.17 24.81C65.28 23.96 65.37 23.21 65.43 22.57C65.49 21.93 65.51 21.43 65.51 21.09C65.51 20.45 65.43 20.04 65.25 19.87C65.08 19.7 64.9 19.61 64.71 19.61C64.29 19.61 63.86 19.93 63.4 20.58C62.94 21.22 62.47 22.4 61.98 24.1L58.85 23.19C59.04 22.39 59.3 21.48 59.65 20.46C59.99 19.44 60.46 18.46 61.07 17.53C61.68 16.6 62.41 15.83 63.29 15.23C64.16 14.62 65.22 14.32 66.47 14.32C67.3 14.32 68.08 14.47 68.8 14.77C69.52 15.07 70.11 15.59 70.56 16.33C71.01 17.07 71.24 18.12 71.24 19.48C71.24 20.2 71.2 20.79 71.13 21.24C71.05 21.7 70.98 22.24 70.9 22.89H70.96C71.87 20.62 72.86 18.85 73.94 17.6C75.02 16.35 76.14 15.49 77.29 15.01C78.45 14.54 79.57 14.3 80.67 14.3C82.3 14.3 83.61 14.66 84.59 15.38C85.58 16.1 86.3 17.11 86.78 18.42C87.25 19.73 87.49 21.27 87.49 23.05C87.49 24.41 87.38 25.93 87.15 27.6C86.92 29.27 86.69 30.93 86.44 32.6C86.19 34.27 86.07 35.8 86.07 37.2C86.07 37.81 86.16 38.2 86.35 38.39C86.54 38.58 86.73 38.67 86.92 38.67C87.34 38.67 87.77 38.35 88.23 37.7C88.69 37.06 89.16 35.88 89.65 34.18L92.72 35.09C92.57 35.89 92.27 36.8 91.84 37.82C91.4 38.84 90.83 39.82 90.11 40.75C89.39 41.68 88.54 42.45 87.55 43.05C86.58 43.69 85.44 43.99 84.15 43.99Z" fill="black"/>
<path d="M114.84 43.99C112.76 43.99 111.34 43.42 110.61 42.28C109.87 41.14 109.5 39.57 109.5 37.56C109.5 36.42 109.58 35.14 109.73 33.72C109.88 32.3 110.04 30.85 110.21 29.37C110.38 27.89 110.54 26.5 110.69 25.19C110.84 23.88 110.92 22.79 110.92 21.92C110.92 21.35 110.86 20.89 110.75 20.53C110.64 20.17 110.47 19.91 110.24 19.76C110.01 19.61 109.71 19.53 109.33 19.53C108.65 19.53 107.94 19.95 107.2 20.78C106.46 21.61 105.75 22.74 105.07 24.16C104.39 25.58 103.78 27.15 103.25 28.88C102.72 30.6 102.29 32.37 101.97 34.17C101.65 35.97 101.49 37.67 101.49 39.26C101.49 39.75 101.51 40.44 101.55 41.34C101.59 42.23 101.63 42.9 101.66 43.36H94.33C94.25 42.56 94.21 42.01 94.19 41.68C94.17 41.36 94.16 41.01 94.16 40.63C94.16 39.83 94.21 38.9 94.3 37.82C94.39 36.74 94.52 35.57 94.67 34.3C94.82 33.03 94.97 31.77 95.12 30.52C95.23 29.5 95.36 28.5 95.49 27.54C95.62 26.57 95.74 25.66 95.86 24.81C95.97 23.96 96.06 23.21 96.12 22.57C96.18 21.93 96.2 21.43 96.2 21.09C96.2 20.45 96.12 20.04 95.94 19.87C95.77 19.7 95.59 19.61 95.4 19.61C94.98 19.61 94.55 19.93 94.09 20.58C93.63 21.22 93.16 22.4 92.67 24.1L89.54 23.19C89.73 22.39 89.99 21.48 90.33 20.46C90.67 19.44 91.14 18.46 91.75 17.53C92.36 16.6 93.09 15.83 93.97 15.23C94.84 14.62 95.9 14.32 97.15 14.32C97.98 14.32 98.76 14.47 99.48 14.77C100.2 15.07 100.79 15.59 101.24 16.33C101.69 17.07 101.92 18.12 101.92 19.48C101.92 20.2 101.88 20.79 101.81 21.24C101.73 21.7 101.66 22.24 101.58 22.89H101.64C102.55 20.62 103.54 18.85 104.62 17.6C105.7 16.35 106.82 15.49 107.97 15.01C109.13 14.54 110.25 14.3 111.35 14.3C112.98 14.3 114.29 14.66 115.27 15.38C116.26 16.1 116.98 17.11 117.46 18.42C117.93 19.73 118.17 21.27 118.17 23.05C118.17 24.41 118.06 25.93 117.83 27.6C117.6 29.27 117.37 30.93 117.12 32.6C116.87 34.27 116.75 35.8 116.75 37.2C116.75 37.81 116.84 38.2 117.03 38.39C117.22 38.58 117.41 38.67 117.6 38.67C118.02 38.67 118.45 38.35 118.91 37.7C119.37 37.06 119.84 35.88 120.33 34.18L123.4 35.09C123.25 35.89 122.95 36.8 122.52 37.82C122.08 38.84 121.51 39.82 120.79 40.75C120.07 41.68 119.22 42.45 118.23 43.05C117.27 43.69 116.13 43.99 114.84 43.99Z" fill="black"/>
<path d="M135.7 14.32C137.37 14.32 138.84 14.57 140.13 15.06C141.42 15.55 142.42 16.33 143.14 17.39C143.86 18.45 144.22 19.82 144.22 21.48C144.22 23.03 143.76 24.35 142.83 25.43C141.9 26.51 140.69 27.39 139.19 28.07C137.69 28.75 136.05 29.31 134.27 29.75C132.49 30.19 130.77 30.52 129.1 30.74C129.1 32.9 129.36 34.56 129.87 35.71C130.38 36.87 131.04 37.66 131.83 38.1C132.63 38.54 133.42 38.75 134.22 38.75C134.86 38.75 135.63 38.63 136.52 38.38C137.41 38.13 138.31 37.61 139.22 36.82C140.13 36.02 140.93 34.85 141.61 33.3L144.79 34.84C143.73 37.3 142.54 39.2 141.21 40.52C139.88 41.84 138.5 42.76 137.06 43.25C135.62 43.74 134.16 43.99 132.68 43.99C129.19 44.03 126.43 43.02 124.38 40.98C122.33 38.93 121.31 35.81 121.31 31.6C121.31 29.78 121.59 27.87 122.16 25.86C122.73 23.85 123.59 21.98 124.75 20.23C125.91 18.49 127.39 17.07 129.21 15.97C131.04 14.87 133.2 14.32 135.7 14.32ZM135.08 18.07C133.79 18.07 132.75 18.52 131.95 19.43C131.15 20.34 130.55 21.49 130.13 22.87C129.71 24.25 129.43 25.65 129.28 27.05C131.33 26.67 132.95 26.16 134.17 25.52C135.38 24.88 136.26 24.14 136.81 23.3C137.36 22.47 137.61 21.59 137.58 20.69C137.54 19.74 137.26 19.07 136.73 18.67C136.19 18.27 135.64 18.07 135.08 18.07Z" fill="black"/>
<path d="M158.04 14.32C159.78 14.32 161.34 14.6 162.73 15.17C164.11 15.74 165.21 16.52 166.03 17.53C166.84 18.53 167.25 19.74 167.25 21.14C167.25 22.28 166.92 23.21 166.26 23.92C165.6 24.64 164.72 25.02 163.62 25.06C162.33 25.1 161.42 24.71 160.89 23.89C160.36 23.08 160.09 22.35 160.09 21.7C160.09 21.36 160.14 20.97 160.23 20.53C160.32 20.1 160.47 19.69 160.66 19.31C160.51 18.97 160.19 18.68 159.69 18.43C159.2 18.18 158.61 18.06 157.93 18.06C156.72 18.06 155.72 18.47 154.95 19.28C154.17 20.1 153.57 21.13 153.13 22.38C152.69 23.63 152.38 24.95 152.19 26.33C152 27.71 151.89 28.97 151.85 30.11C151.77 32.16 151.96 33.8 152.42 35.06C152.87 36.31 153.48 37.22 154.24 37.79C155 38.36 155.78 38.68 156.57 38.76C157.29 38.8 158.11 38.69 159.01 38.45C159.92 38.2 160.85 37.66 161.8 36.8C162.75 35.95 163.6 34.63 164.36 32.85L167.6 34.44C166.54 36.9 165.35 38.83 164.02 40.21C162.69 41.59 161.29 42.56 159.81 43.11C158.33 43.66 156.8 43.95 155.21 43.99C151.88 43.95 149.18 42.93 147.14 40.92C145.09 38.91 144.07 35.8 144.07 31.6C144.07 29.78 144.35 27.87 144.92 25.86C145.49 23.85 146.35 21.98 147.51 20.23C148.67 18.49 150.11 17.07 151.86 15.97C153.58 14.87 155.65 14.32 158.04 14.32Z" fill="black"/>
<path d="M179.46 6.37L178.32 14.95H185.42L185.08 18.87L177.98 18.98C177.83 20.34 177.66 21.81 177.47 23.38C177.28 24.95 177.12 26.49 176.99 27.98C176.86 29.48 176.74 30.82 176.65 32.02C176.55 33.21 176.51 34.13 176.51 34.78C176.51 35.27 176.57 35.81 176.68 36.4C176.79 36.99 177.04 37.49 177.42 37.91C177.8 38.33 178.41 38.53 179.24 38.53C179.54 38.53 179.99 38.44 180.58 38.27C181.17 38.1 181.8 37.77 182.48 37.27C183.16 36.78 183.79 36 184.36 34.94L187.26 36.76C185.97 39.18 184.4 40.99 182.54 42.19C180.68 43.38 178.69 43.98 176.57 43.98C174.49 43.98 172.92 43.54 171.88 42.67C170.84 41.8 170.15 40.65 169.81 39.23C169.47 37.81 169.32 36.32 169.35 34.77C169.43 33.48 169.52 31.96 169.63 30.19C169.74 28.43 169.89 26.57 170.09 24.62C170.28 22.67 170.47 20.8 170.66 19.02L166.11 19.08L166.62 14.93C169.42 14.93 171.5 14.19 172.84 12.71C174.18 11.23 175.12 9.11 175.65 6.34H179.46V6.37Z" fill="black"/>
<path d="M192.42 14.32C194.39 14.32 195.76 14.92 196.54 16.11C197.32 17.3 197.71 18.9 197.71 20.91C197.71 21.82 197.61 23.05 197.43 24.6C197.24 26.15 197.03 27.78 196.81 29.49C196.58 31.2 196.37 32.75 196.18 34.15C195.99 35.55 195.9 36.58 195.9 37.22C195.9 37.83 195.99 38.22 196.18 38.41C196.37 38.6 196.56 38.69 196.75 38.69C197.21 38.69 197.66 38.37 198.11 37.72C198.57 37.08 199.04 35.9 199.53 34.2L202.6 35.11C202.45 35.91 202.15 36.82 201.72 37.84C201.28 38.86 200.71 39.84 199.99 40.77C199.27 41.7 198.41 42.47 197.4 43.07C196.4 43.68 195.25 43.98 193.96 43.98C191.88 43.98 190.44 43.41 189.67 42.27C188.89 41.13 188.5 39.56 188.5 37.55C188.5 36.45 188.59 35.14 188.78 33.63C188.97 32.12 189.19 30.56 189.43 28.97C189.68 27.38 189.89 25.89 190.08 24.51C190.27 23.13 190.36 21.98 190.36 21.07C190.36 20.43 190.27 20.02 190.08 19.85C189.89 19.68 189.68 19.59 189.46 19.59C189.04 19.59 188.61 19.91 188.15 20.56C187.7 21.2 187.22 22.38 186.73 24.08L183.66 23.17C183.81 22.37 184.12 21.46 184.57 20.44C185.02 19.42 185.62 18.44 186.36 17.51C187.1 16.58 187.97 15.81 188.97 15.21C189.99 14.63 191.13 14.32 192.42 14.32ZM194.41 0C195.66 0 196.67 0.46 197.45 1.36C198.23 2.27 198.58 3.39 198.5 4.71C198.46 6 198.03 7.09 197.19 7.98C196.36 8.87 195.31 9.32 194.06 9.32C192.77 9.32 191.74 8.87 190.96 7.98C190.18 7.09 189.81 6 189.85 4.71C189.93 3.38 190.42 2.27 191.33 1.36C192.25 0.46 193.27 0 194.41 0Z" fill="black"/>
<path d="M224.88 43.99C222.8 43.99 221.38 43.42 220.65 42.28C219.91 41.14 219.54 39.57 219.54 37.56C219.54 36.42 219.62 35.14 219.77 33.72C219.92 32.3 220.08 30.85 220.25 29.37C220.42 27.89 220.58 26.5 220.73 25.19C220.88 23.88 220.96 22.79 220.96 21.92C220.96 21.35 220.9 20.89 220.79 20.53C220.68 20.17 220.51 19.91 220.28 19.76C220.05 19.61 219.75 19.53 219.37 19.53C218.69 19.53 217.98 19.95 217.24 20.78C216.5 21.61 215.79 22.74 215.11 24.16C214.43 25.58 213.82 27.15 213.29 28.88C212.76 30.6 212.33 32.37 212.01 34.17C211.69 35.97 211.53 37.67 211.53 39.26C211.53 39.75 211.55 40.44 211.59 41.34C211.63 42.23 211.67 42.9 211.7 43.36H204.37C204.29 42.56 204.25 42.01 204.23 41.68C204.21 41.36 204.2 41.01 204.2 40.63C204.2 39.83 204.25 38.9 204.34 37.82C204.43 36.74 204.56 35.57 204.71 34.3C204.86 33.03 205.01 31.77 205.16 30.52C205.27 29.5 205.4 28.5 205.53 27.54C205.66 26.57 205.78 25.66 205.9 24.81C206.01 23.96 206.1 23.21 206.16 22.57C206.22 21.93 206.24 21.43 206.24 21.09C206.24 20.45 206.16 20.04 205.98 19.87C205.81 19.7 205.63 19.61 205.44 19.61C205.02 19.61 204.59 19.93 204.13 20.58C203.67 21.22 203.2 22.4 202.71 24.1L199.58 23.19C199.77 22.39 200.03 21.48 200.37 20.46C200.71 19.44 201.18 18.46 201.79 17.53C202.4 16.6 203.13 15.83 204.01 15.23C204.88 14.62 205.94 14.32 207.19 14.32C208.02 14.32 208.8 14.47 209.52 14.77C210.24 15.07 210.83 15.59 211.28 16.33C211.73 17.07 211.96 18.12 211.96 19.48C211.96 20.2 211.92 20.79 211.85 21.24C211.77 21.7 211.7 22.24 211.62 22.89H211.68C212.59 20.62 213.58 18.85 214.66 17.6C215.74 16.35 216.86 15.49 218.01 15.01C219.17 14.54 220.29 14.3 221.39 14.3C223.02 14.3 224.33 14.66 225.31 15.38C226.3 16.1 227.02 17.11 227.5 18.42C227.97 19.73 228.21 21.27 228.21 23.05C228.21 24.41 228.1 25.93 227.87 27.6C227.64 29.27 227.41 30.93 227.16 32.6C226.91 34.27 226.79 35.8 226.79 37.2C226.79 37.81 226.88 38.2 227.07 38.39C227.26 38.58 227.45 38.67 227.64 38.67C228.06 38.67 228.49 38.35 228.95 37.7C229.41 37.06 229.88 35.88 230.37 34.18L233.44 35.09C233.29 35.89 232.99 36.8 232.56 37.82C232.12 38.84 231.55 39.82 230.83 40.75C230.11 41.68 229.26 42.45 228.27 43.05C227.3 43.69 226.16 43.99 224.88 43.99Z" fill="black"/>
<path d="M240.16 58.77C238.76 58.77 237.49 58.65 236.35 58.4C235.21 58.15 234.24 57.78 233.42 57.29C232.6 56.8 231.98 56.18 231.54 55.44C231.1 54.7 230.89 53.86 230.89 52.91C230.89 52.34 231.02 51.74 231.29 51.09C231.55 50.45 231.96 49.9 232.51 49.44C233.06 48.99 233.79 48.76 234.7 48.76C235.72 48.76 236.58 49.08 237.26 49.73C237.94 50.37 238.28 51.25 238.28 52.34C238.28 52.95 238.17 53.51 237.94 54.05C238.13 54.31 238.53 54.54 239.13 54.73C239.74 54.92 240.25 55.01 240.66 55.01C242.18 55.01 243.35 54.58 244.18 53.73C245.01 52.88 245.63 51.71 246.03 50.23C246.43 48.75 246.74 47.08 246.97 45.23C247.23 43.22 247.51 41.48 247.79 40C248.07 38.52 248.44 37.03 248.9 35.51H248.84C248.12 37.18 247.38 38.56 246.62 39.66C245.86 40.76 245.08 41.62 244.26 42.25C243.44 42.87 242.61 43.32 241.76 43.59C240.91 43.86 240.05 43.99 239.17 43.99C237.81 43.99 236.53 43.62 235.33 42.88C234.14 42.14 233.17 41 232.43 39.47C231.69 37.94 231.32 35.99 231.32 33.64C231.32 31.02 231.63 28.55 232.26 26.22C232.88 23.89 233.87 21.84 235.22 20.05C236.56 18.27 238.28 16.87 240.36 15.84C242.44 14.81 244.93 14.31 247.81 14.31C248.87 14.31 250.21 14.41 251.82 14.62C253.43 14.83 254.99 15.12 256.51 15.5C256.43 16.86 256.33 18.64 256.2 20.81C256.07 22.99 255.92 25.33 255.74 27.83C255.57 30.33 255.39 32.75 255.2 35.08C255.01 37.41 254.84 39.41 254.69 41.08C254.39 44.64 253.71 47.75 252.67 50.4C251.63 53.05 250.09 55.11 248.07 56.57C246.06 58.04 243.42 58.77 240.16 58.77ZM241.53 38.93C242.36 38.93 243.14 38.5 243.86 37.65C244.58 36.8 245.23 35.64 245.82 34.18C246.41 32.72 246.93 31.09 247.38 29.29C247.83 27.49 248.21 25.65 248.52 23.78C248.82 21.9 249.01 20.11 249.09 18.41C248.86 18.33 248.49 18.26 247.98 18.18C247.47 18.1 246.97 18.07 246.47 18.07C245.18 18.07 244.06 18.42 243.12 19.12C242.17 19.82 241.41 20.85 240.82 22.22C240.23 23.58 239.8 25.24 239.51 27.19C239.23 29.14 239.08 31.39 239.08 33.93C239.08 34.95 239.18 35.84 239.39 36.6C239.6 37.36 239.89 37.94 240.27 38.33C240.65 38.73 241.07 38.93 241.53 38.93Z" fill="black"/>
<path d="M302.62 3.58L302.34 15.86H299.61C299.72 13.7 299.58 11.9 299.18 10.46C298.78 9.02 298.08 7.94 297.08 7.22C296.08 6.5 294.66 6.16 292.85 6.2L288.76 6.26L287.05 35.76C287.01 36.78 286.94 37.7 286.85 38.52C286.76 39.33 286.67 39.99 286.59 40.48C287.08 40.44 287.6 40.41 288.15 40.39C288.7 40.37 289.24 40.34 289.77 40.31C290.3 40.27 290.79 40.25 291.25 40.25L291.08 43.38H276.87L276.98 40.88C278.12 40.8 278.97 40.54 279.54 40.08C280.11 39.63 280.52 38.93 280.76 38.01C281.01 37.08 281.17 35.94 281.24 34.57L282.89 6.27L278.12 6.33C275.81 6.33 274.08 7.11 272.92 8.66C271.76 10.21 271.09 12.62 270.9 15.88H268.29L269.26 3.6H302.62V3.58Z" fill="black"/>
<path d="M312 14.32C313.48 14.32 314.83 14.54 316.06 14.97C317.29 15.41 318.28 16.12 319.04 17.1C319.8 18.09 320.18 19.41 320.18 21.08C320.18 22.63 319.67 23.97 318.65 25.09C317.63 26.21 316.3 27.13 314.67 27.85C313.04 28.57 311.28 29.15 309.38 29.58C307.48 30.02 305.67 30.35 303.92 30.58C303.92 32.85 304.17 34.71 304.66 36.15C305.15 37.59 305.84 38.65 306.74 39.33C307.63 40.01 308.7 40.35 309.95 40.35C310.9 40.35 311.89 40.14 312.93 39.73C313.97 39.31 314.98 38.64 315.97 37.71C316.96 36.78 317.85 35.52 318.64 33.93L320.97 35.18C319.91 37.3 318.75 39.02 317.5 40.32C316.25 41.63 314.9 42.57 313.46 43.13C312.02 43.7 310.47 43.98 308.8 43.98C305.24 43.98 302.55 42.89 300.73 40.71C298.91 38.53 298 35.51 298 31.65C298 29.6 298.28 27.55 298.85 25.48C299.42 23.42 300.27 21.54 301.41 19.85C302.55 18.16 304 16.82 305.79 15.81C307.58 14.8 309.65 14.32 312 14.32ZM311.26 16.88C309.67 16.88 308.37 17.42 307.37 18.5C306.37 19.58 305.6 20.97 305.07 22.68C304.54 24.39 304.2 26.15 304.05 27.97C306.06 27.67 307.88 27.18 309.51 26.52C311.14 25.86 312.44 25.02 313.4 24.02C314.37 23.02 314.83 21.89 314.79 20.64C314.79 19.5 314.48 18.59 313.85 17.91C313.22 17.22 312.36 16.88 311.26 16.88Z" fill="black"/>
<path d="M337.69 14.32C338.83 14.32 340.09 14.41 341.47 14.6C342.85 14.79 344.21 15.04 345.53 15.34C345.26 17.35 344.98 19.44 344.68 21.62C344.38 23.8 344.1 25.92 343.86 27.99C343.61 30.06 343.41 31.92 343.24 33.59C343.07 35.26 342.98 36.57 342.98 37.51C342.98 38.23 343.05 38.88 343.18 39.47C343.31 40.06 343.68 40.35 344.29 40.35C344.9 40.35 345.54 39.96 346.22 39.18C346.9 38.4 347.51 37.07 348.04 35.17L350.14 35.68C349.99 36.4 349.73 37.22 349.37 38.15C349.01 39.08 348.53 39.99 347.92 40.88C347.31 41.77 346.56 42.51 345.67 43.1C344.78 43.69 343.75 43.98 342.57 43.98C341.13 43.98 340.05 43.54 339.33 42.67C338.61 41.8 338.25 40.53 338.25 38.86C338.25 37.95 338.33 36.97 338.48 35.9C338.63 34.83 338.8 33.76 338.99 32.66H338.88C338.05 35.09 337.17 37.04 336.27 38.51C335.36 39.99 334.45 41.12 333.54 41.92C332.63 42.72 331.73 43.25 330.84 43.54C329.95 43.82 329.09 43.97 328.25 43.97C326.2 43.97 324.47 43.18 323.05 41.61C321.63 40.04 320.92 37.47 320.92 33.91C320.92 31.29 321.27 28.8 321.97 26.44C322.67 24.07 323.73 21.98 325.15 20.16C326.57 18.34 328.33 16.91 330.44 15.87C332.55 14.84 334.96 14.32 337.69 14.32ZM335.82 16.94C334.34 16.94 333.03 17.37 331.9 18.22C330.77 19.07 329.81 20.26 329.03 21.77C328.25 23.29 327.67 25.04 327.3 27.03C326.92 29.02 326.73 31.15 326.73 33.42C326.73 35.54 326.97 37.28 327.44 38.62C327.91 39.97 328.74 40.64 329.91 40.64C330.86 40.64 331.79 40.16 332.72 39.19C333.65 38.22 334.52 36.93 335.33 35.3C336.14 33.67 336.87 31.84 337.49 29.82C338.11 27.79 338.61 25.72 338.97 23.6C339.33 21.48 339.53 19.45 339.57 17.52C339.12 17.33 338.56 17.19 337.89 17.09C337.23 16.99 336.54 16.94 335.82 16.94Z" fill="black"/>
<path d="M387.65 43.99C385.75 43.99 384.48 43.49 383.81 42.48C383.15 41.48 382.82 40.05 382.82 38.19C382.82 37.13 382.91 35.88 383.1 34.44C383.29 33 383.51 31.49 383.75 29.92C384 28.35 384.21 26.79 384.4 25.23C384.59 23.67 384.68 22.26 384.68 20.97C384.68 20.48 384.61 19.99 384.48 19.52C384.35 19.05 384.11 18.65 383.77 18.33C383.43 18.01 382.94 17.85 382.29 17.85C381.38 17.85 380.46 18.31 379.53 19.24C378.6 20.17 377.74 21.42 376.94 22.99C376.14 24.56 375.43 26.31 374.81 28.22C374.19 30.13 373.7 32.1 373.36 34.13C373.02 36.16 372.85 38.08 372.85 39.9C372.85 40.43 372.86 41 372.88 41.61C372.9 42.22 372.93 42.8 372.96 43.37H367.33C367.29 42.91 367.26 42.51 367.25 42.15C367.23 41.79 367.22 41.44 367.22 41.1C367.22 39.62 367.31 37.95 367.5 36.07C367.69 34.19 367.91 32.29 368.15 30.36C368.4 28.43 368.61 26.62 368.8 24.93C368.99 23.24 369.06 21.87 369.03 20.81C368.99 20.09 368.82 19.42 368.52 18.79C368.22 18.17 367.61 17.85 366.7 17.85C365.75 17.85 364.82 18.31 363.91 19.24C363 20.17 362.14 21.43 361.32 23.02C360.5 24.61 359.78 26.37 359.13 28.31C358.48 30.24 357.98 32.22 357.62 34.25C357.26 36.28 357.08 38.2 357.08 40.02C357.08 40.55 357.1 41.12 357.14 41.73C357.18 42.34 357.22 42.89 357.25 43.38H351.62C351.58 42.92 351.55 42.58 351.54 42.33C351.52 42.08 351.51 41.81 351.51 41.51C351.51 40.83 351.55 40.03 351.62 39.12C351.7 38.21 351.81 37.08 351.96 35.74C352.11 34.4 352.3 32.74 352.53 30.77C352.76 28.91 352.95 27.4 353.1 26.22C353.25 25.05 353.36 24.08 353.44 23.32C353.52 22.56 353.57 21.96 353.61 21.5C353.65 21.04 353.67 20.61 353.67 20.19C353.67 19.51 353.59 18.97 353.42 18.57C353.25 18.17 352.92 17.97 352.42 17.97C351.85 17.97 351.23 18.36 350.54 19.14C349.86 19.92 349.25 21.25 348.72 23.15L346.62 22.64C346.77 21.92 347.02 21.1 347.36 20.17C347.7 19.24 348.17 18.33 348.78 17.44C349.39 16.55 350.12 15.81 351 15.22C351.87 14.63 352.89 14.34 354.07 14.34C355.21 14.34 356.1 14.59 356.74 15.11C357.38 15.62 357.85 16.34 358.13 17.27C358.41 18.2 358.54 19.27 358.5 20.48C358.46 21.43 358.37 22.34 358.22 23.21C358.07 24.08 357.94 24.9 357.82 25.65H357.93C359.03 22.58 360.17 20.23 361.34 18.6C362.51 16.97 363.69 15.85 364.86 15.25C366.03 14.64 367.13 14.34 368.16 14.34C369.6 14.34 370.75 14.66 371.6 15.31C372.45 15.95 373.08 16.77 373.48 17.75C373.88 18.74 374.08 19.76 374.08 20.82C374.08 21.65 374.03 22.37 373.94 22.98C373.84 23.59 373.66 24.44 373.4 25.54H373.51C374.65 22.47 375.8 20.13 376.98 18.52C378.15 16.91 379.32 15.81 380.48 15.22C381.64 14.63 382.74 14.34 383.8 14.34C385.35 14.34 386.59 14.69 387.49 15.39C388.4 16.09 389.05 17.03 389.45 18.2C389.85 19.37 390.05 20.7 390.05 22.18C390.05 24.04 389.91 25.97 389.62 27.98C389.33 29.99 389.05 31.88 388.77 33.66C388.49 35.44 388.34 36.92 388.34 38.09C388.34 38.77 388.43 39.32 388.6 39.74C388.77 40.16 389.12 40.36 389.65 40.36C390.22 40.36 390.84 39.98 391.53 39.22C392.21 38.46 392.82 37.12 393.35 35.18L395.45 35.75C395.34 36.43 395.07 37.25 394.66 38.19C394.24 39.14 393.72 40.05 393.1 40.92C392.48 41.79 391.7 42.52 390.77 43.11C389.88 43.7 388.82 43.99 387.65 43.99Z" fill="black"/>
<path d="M403.05 43.99C401.46 43.99 399.93 43.74 398.47 43.25C397.01 42.76 395.84 42.04 394.95 41.09C394.06 40.14 393.61 39.02 393.61 37.74C393.61 36.79 393.88 36.03 394.43 35.44C394.98 34.85 395.65 34.56 396.45 34.56C397.28 34.56 397.95 34.84 398.44 35.38C398.93 35.93 399.18 36.58 399.18 37.34C399.18 37.6 399.14 37.88 399.07 38.16C398.99 38.44 398.88 38.74 398.73 39.04C398.99 39.72 399.56 40.27 400.44 40.69C401.31 41.11 402.18 41.32 403.06 41.32C404.99 41.32 406.4 40.88 407.29 40.01C408.18 39.14 408.62 37.98 408.62 36.54C408.62 35.63 408.29 34.82 407.63 34.1C406.97 33.38 406.12 32.7 405.1 32.05C404.08 31.41 403.02 30.76 401.92 30.12C400.59 29.32 399.4 28.55 398.34 27.79C397.28 27.03 396.44 26.2 395.84 25.29C395.23 24.38 394.93 23.34 394.93 22.16C394.93 20.8 395.35 19.52 396.18 18.32C397.01 17.13 398.2 16.16 399.73 15.42C401.26 14.68 403.06 14.31 405.1 14.31C406.58 14.31 407.98 14.55 409.31 15.02C410.64 15.49 411.73 16.16 412.61 17.01C413.48 17.86 413.92 18.9 413.92 20.11C413.92 20.98 413.65 21.7 413.12 22.27C412.59 22.84 411.93 23.12 411.13 23.12C410.33 23.12 409.69 22.85 409.2 22.3C408.71 21.75 408.46 21.13 408.46 20.45C408.46 20.15 408.5 19.85 408.57 19.57C408.65 19.29 408.76 18.99 408.91 18.69C408.68 18.12 408.22 17.67 407.52 17.33C406.82 16.99 405.96 16.82 404.93 16.82C404.17 16.82 403.43 16.98 402.71 17.3C401.99 17.62 401.38 18.08 400.89 18.66C400.4 19.25 400.15 19.96 400.15 20.79C400.15 21.44 400.34 22.03 400.72 22.58C401.1 23.13 401.65 23.66 402.37 24.17C403.09 24.68 403.98 25.28 405.04 25.96C406.37 26.72 407.73 27.53 409.13 28.4C410.53 29.27 411.71 30.28 412.65 31.41C413.59 32.54 414.07 33.91 414.07 35.5C414.07 37.13 413.6 38.59 412.65 39.88C411.7 41.17 410.41 42.17 408.76 42.89C407.12 43.63 405.21 43.99 403.05 43.99Z" fill="black"/>
</g>
<defs>
<clipPath id="clip0">
<rect width="414.08" height="58.77" fill="white"/>
</clipPath>
</defs>
</svg>
